<svg width="40" height="40" viewBox="0 0 40 40" fill="none" xmlns="http://www.w3.org/2000/svg">
<rect width="40" height="40" rx="20" fill="#EB5757"/>
<circle cx="20" cy="20" r="12" stroke="white" stroke-width="4"/>
<path d="M18 25C18 26.1046 18.8954 27 20 27C21.1046 27 22 26.1046 22 25H18ZM22 15C22 13.8954 21.1046 13 20 13C18.8954 13 18 13.8954 18 15H22ZM22 25V15H18V25H22Z" fill="white"/>
<path d="M25 22C26.1046 22 27 21.1046 27 20C27 18.8954 26.1046 18 25 18V22ZM15 18C13.8954 18 13 18.8954 13 20C13 21.1046 13.8954 22 15 22V18ZM25 18H15V22H25V18Z" fill="white"/>
</svg>
