<svg width="40" height="40" viewBox="0 0 40 40" fill="none" xmlns="http://www.w3.org/2000/svg">
<path fill-rule="evenodd" clip-rule="evenodd" d="M15 9C15 6.23858 17.2386 4 20 4C22.7614 4 25 6.23858 25 9V18V22H23V18V9C23 7.34315 21.6569 6 20 6C18.3431 6 17 7.34315 17 9V18V22H15V18V9Z" fill="#EB5757"/>
<path fill-rule="evenodd" clip-rule="evenodd" d="M26 28C26 31.3137 23.3137 34 20 34C16.6863 34 14 31.3137 14 28C14 25.7791 15.2066 23.8401 17 22.8027V20.5815C14.0682 21.7683 12 24.6426 12 28C12 32.4183 15.5817 36 20 36C24.4183 36 28 32.4183 28 28C28 24.6426 25.9318 21.7683 23 20.5815V22.8027C24.7934 23.8401 26 25.7791 26 28Z" fill="#EB5757"/>
<rect x="19" y="8" width="2" height="18" rx="1" fill="#EB5757"/>
<rect x="16" y="24" width="8" height="8" rx="4" fill="#EB5757"/>
</svg>
