<svg width="40" height="40" viewBox="0 0 40 40" fill="none" xmlns="http://www.w3.org/2000/svg">
<path d="M18.8572 17.8572C20.7619 15.9524 20.7619 8.33334 22.6667 8.33334C24.5715 8.33334 24.5715 15.9524 26.4762 17.8572C28.381 19.7619 36 19.7619 36 21.6667C36 23.5714 28.381 23.5714 26.4762 25.4762C24.5715 27.381 24.5715 35 22.6667 35C20.7619 35 20.7619 27.381 18.8572 25.4762C16.9524 23.5714 9.33337 23.5714 9.33337 21.6667C9.33337 19.7619 16.9524 19.7619 18.8572 17.8572Z" fill="#F2C94C"/>
<path d="M7.80952 10.8095C8.57143 10.0476 8.57143 7 9.33333 7C10.0952 7 10.0952 10.0476 10.8571 10.8095C11.619 11.5714 14.6667 11.5714 14.6667 12.3333C14.6667 13.0952 11.619 13.0952 10.8571 13.8571C10.0952 14.619 10.0953 17.6667 9.33333 17.6667C8.57141 17.6667 8.57143 14.619 7.80952 13.8571C7.04762 13.0952 4 13.0952 4 12.3333C4 11.5714 7.04762 11.5714 7.80952 10.8095Z" fill="#F2C94C"/>
<path d="M15.2381 4.90476C15.6191 4.52381 15.6191 3 16 3C16.381 3 16.381 4.52381 16.7619 4.90476C17.1429 5.28571 18.6667 5.28571 18.6667 5.66667C18.6667 6.04762 17.1429 6.04762 16.7619 6.42857C16.381 6.80952 16.381 8.33333 16 8.33333C15.6191 8.33333 15.6191 6.80952 15.2381 6.42857C14.8572 6.04762 13.3334 6.04762 13.3334 5.66667C13.3334 5.28571 14.8572 5.28571 15.2381 4.90476Z" fill="#F2C94C"/>
</svg>
