<svg width="40" height="40" viewBox="0 0 40 40" fill="none" xmlns="http://www.w3.org/2000/svg">
<rect x="14" y="6" width="18" height="24" rx="2" fill="#6FCF97"/>
<path d="M22 35H8C7.44772 35 7 34.5523 7 34V14C7 13.4477 7.44772 13 8 13H16.1716C16.4368 13 16.6911 13.1054 16.8787 13.2929L22.7071 19.1213C22.8946 19.3089 23 19.5632 23 19.8284V34C23 34.5523 22.5523 35 22 35Z" fill="white" stroke="#6FCF97" stroke-width="2"/>
<rect x="18" y="8" width="10" height="2" rx="1" fill="white"/>
<path d="M16 20H15C15 20.5523 15.4477 21 16 21V20ZM15 12V20H17V12H15ZM16 21H24V19H16V21Z" fill="#6FCF97"/>
</svg>
