<svg width="40" height="40" viewBox="0 0 40 40" fill="none" xmlns="http://www.w3.org/2000/svg">
<path d="M6 18C4.89543 18 4 18.8954 4 20C4 21.1046 4.89543 22 6 22L6 18ZM34 22C35.1046 22 36 21.1046 36 20C36 18.8954 35.1046 18 34 18V22ZM11 20L11 22C11.7575 22 12.4501 21.572 12.7889 20.8944L11 20ZM30 20L30 18C29.3705 18 28.7777 18.2964 28.4 18.8L30 20ZM15 12L16.7432 11.0195C16.3804 10.3745 15.6911 9.98256 14.9513 10.0006C14.2115 10.0186 13.5421 10.4437 13.2111 11.1056L15 12ZM24 28L22.2568 28.9805C22.5882 29.5696 23.1946 29.9514 23.869 29.9957C24.5434 30.04 25.1945 29.7407 25.6 29.2L24 28ZM6 22H11L11 18H6L6 22ZM30 22H34V18H30L30 22ZM12.7889 20.8944L16.7889 12.8944L13.2111 11.1056L9.21115 19.1056L12.7889 20.8944ZM25.6 29.2L31.6 21.2L28.4 18.8L22.4 26.8L25.6 29.2ZM13.2568 12.9805L22.2568 28.9805L25.7432 27.0195L16.7432 11.0195L13.2568 12.9805Z" fill="#6FCF97"/>
</svg>
