<svg width="28" height="28" viewBox="0 0 28 28" fill="none" xmlns="http://www.w3.org/2000/svg">
<path d="M24.5858 0.585786C25.3668 -0.195262 26.6332 -0.195262 27.4142 0.585786C28.1953 1.36684 28.1953 2.63316 27.4142 3.41421L24.5858 0.585786ZM19.4142 11.4142C18.6332 12.1953 17.3668 12.1953 16.5858 11.4142C15.8047 10.6332 15.8047 9.36684 16.5858 8.58579L19.4142 11.4142ZM27.4142 3.41421L19.4142 11.4142L16.5858 8.58579L24.5858 0.585786L27.4142 3.41421Z" fill="#212121"/>
<path d="M12.5858 12.5858C13.3668 11.8047 14.6332 11.8047 15.4142 12.5858C16.1953 13.3668 16.1953 14.6332 15.4142 15.4142L12.5858 12.5858ZM3.41421 27.4142C2.63316 28.1953 1.36684 28.1953 0.585786 27.4142C-0.195262 26.6332 -0.195262 25.3668 0.585786 24.5858L3.41421 27.4142ZM15.4142 15.4142L3.41421 27.4142L0.585786 24.5858L12.5858 12.5858L15.4142 15.4142Z" fill="#212121"/>
<path d="M0.585786 3.41421C-0.195262 2.63316 -0.195262 1.36684 0.585786 0.585786C1.36684 -0.195262 2.63316 -0.195262 3.41421 0.585786L0.585786 3.41421ZM27.4142 24.5858C28.1953 25.3668 28.1953 26.6332 27.4142 27.4142C26.6332 28.1953 25.3668 28.1953 24.5858 27.4142L27.4142 24.5858ZM3.41421 0.585786L27.4142 24.5858L24.5858 27.4142L0.585786 3.41421L3.41421 0.585786Z" fill="#212121"/>
</svg>
