<svg width="40" height="40" viewBox="0 0 40 40" fill="none" xmlns="http://www.w3.org/2000/svg">
<rect width="40" height="40" rx="20" fill="#F2C94C"/>
<circle cx="20" cy="20" r="12" stroke="white" stroke-width="4"/>
<path d="M20.272 14.144C21.4133 14.144 22.3253 14.4427 23.008 15.04C23.7013 15.6373 24.048 16.48 24.048 17.568C24.048 18.5707 23.7173 19.3547 23.056 19.92C22.4053 20.4747 21.5413 20.7573 20.464 20.768L20.384 21.968H17.984L17.904 18.992H18.864C19.6853 18.992 20.3093 18.8907 20.736 18.688C21.1733 18.4853 21.392 18.1173 21.392 17.584C21.392 17.2107 21.2907 16.9173 21.088 16.704C20.8853 16.4907 20.6027 16.384 20.24 16.384C19.856 16.384 19.5573 16.496 19.344 16.72C19.1307 16.9333 19.024 17.2267 19.024 17.6H16.448C16.4267 16.9493 16.56 16.3627 16.848 15.84C17.1467 15.3173 17.584 14.9067 18.16 14.608C18.7467 14.2987 19.4507 14.144 20.272 14.144ZM19.216 26.128C18.736 26.128 18.3413 25.9893 18.032 25.712C17.7333 25.424 17.584 25.072 17.584 24.656C17.584 24.2293 17.7333 23.872 18.032 23.584C18.3413 23.296 18.736 23.152 19.216 23.152C19.6853 23.152 20.0693 23.296 20.368 23.584C20.6773 23.872 20.832 24.2293 20.832 24.656C20.832 25.072 20.6773 25.424 20.368 25.712C20.0693 25.9893 19.6853 26.128 19.216 26.128Z" fill="white"/>
</svg>
