<svg width="40" height="40" viewBox="0 0 40 40" fill="none" xmlns="http://www.w3.org/2000/svg">
<path d="M6 30.5C6 26.3579 9.35786 23 13.5 23C17.6421 23 21 26.3579 21 30.5C21 31.3284 20.3284 32 19.5 32H7.5C6.67157 32 6 31.3284 6 30.5Z" fill="#BB6BD9"/>
<path d="M9.74988 17.75C9.74988 15.6789 11.4288 14 13.4999 14C15.5709 14 17.2499 15.6789 17.2499 17.75C17.2499 19.8211 15.5709 21.5 13.4999 21.5C11.4288 21.5 9.74988 19.8211 9.74988 17.75Z" fill="#BB6BD9"/>
<path d="M14.5 30C14.5 24.7533 18.7533 20.5 24 20.5C29.2467 20.5 33.5 24.7533 33.5 30C33.5 30.8284 32.8284 31.5 32 31.5H16C15.1716 31.5 14.5 30.8284 14.5 30Z" fill="#BB6BD9" stroke="white"/>
<path d="M19.5 13C19.5 10.5147 21.5147 8.5 24 8.5C26.4853 8.5 28.5 10.5147 28.5 13C28.5 15.4853 26.4853 17.5 24 17.5C21.5147 17.5 19.5 15.4853 19.5 13Z" fill="#BB6BD9" stroke="white"/>
</svg>
