<svg width="40" height="40" viewBox="0 0 40 40" fill="none" xmlns="http://www.w3.org/2000/svg">
<path d="M8 8C8 6.89543 8.89543 6 10 6H22.1716C22.702 6 23.2107 6.21071 23.5858 6.58579L31.4142 14.4142C31.7893 14.7893 32 15.298 32 15.8284V32C32 33.1046 31.1046 34 30 34H10C8.89543 34 8 33.1046 8 32V8Z" fill="#EB5757"/>
<rect x="10" y="24" width="20" height="2" rx="1" fill="white"/>
<rect x="10" y="28" width="20" height="2" rx="1" fill="white"/>
<rect x="10" y="20" width="20" height="2" rx="1" fill="white"/>
<path d="M21 6V14H23V6H21ZM24 17H32V15H24V17ZM21 14C21 15.6569 22.3431 17 24 17V15C23.4477 15 23 14.5523 23 14H21Z" fill="white"/>
</svg>
