<svg width="40" height="40" viewBox="0 0 40 40" fill="none" xmlns="http://www.w3.org/2000/svg">
<rect width="40" height="40" rx="20" fill="#F2C94C"/>
<circle cx="20" cy="20" r="10" fill="white"/>
<rect x="19" y="29" width="2" height="4" rx="1" fill="white"/>
<rect x="19" y="7" width="2" height="4" rx="1" fill="white"/>
<rect x="11" y="19" width="2" height="4" rx="1" transform="rotate(90 11 19)" fill="white"/>
<rect x="32.9999" y="19" width="2" height="4" rx="1" transform="rotate(90 32.9999 19)" fill="white"/>
<rect x="25.6569" y="27.071" width="2" height="4" rx="1" transform="rotate(-45 25.6569 27.071)" fill="white"/>
<rect x="10.1005" y="11.5147" width="2" height="4" rx="1" transform="rotate(-45 10.1005 11.5147)" fill="white"/>
<rect x="12.929" y="25.6568" width="2" height="4" rx="1" transform="rotate(45 12.929 25.6568)" fill="white"/>
<rect x="28.4852" y="10.1005" width="2" height="4" rx="1" transform="rotate(45 28.4852 10.1005)" fill="white"/>
<circle cx="20" cy="20" r="1" fill="#F2C94C"/>
<circle cx="17" cy="16" r="1" fill="#F2C94C"/>
<circle cx="23" cy="16" r="1" fill="#F2C94C"/>
<circle cx="17" cy="24" r="1" fill="#F2C94C"/>
<circle cx="23" cy="24" r="1" fill="#F2C94C"/>
<circle cx="15" cy="20" r="1" fill="#F2C94C"/>
<circle cx="25" cy="20" r="1" fill="#F2C94C"/>
</svg>
