<svg width="40" height="40" viewBox="0 0 40 40" fill="none" xmlns="http://www.w3.org/2000/svg">
<path d="M19.0489 4.92705C19.3483 4.00574 20.6517 4.00574 20.9511 4.92705L23.8167 13.7467C23.9506 14.1587 24.3346 14.4377 24.7678 14.4377H34.0413C35.0101 14.4377 35.4128 15.6773 34.6291 16.2467L27.1267 21.6976C26.7762 21.9522 26.6295 22.4036 26.7634 22.8156L29.6291 31.6353C29.9284 32.5566 28.874 33.3227 28.0902 32.7533L20.5878 27.3024C20.2373 27.0478 19.7627 27.0478 19.4122 27.3024L11.9098 32.7533C11.1261 33.3227 10.0716 32.5566 10.3709 31.6353L13.2366 22.8156C13.3705 22.4036 13.2238 21.9522 12.8733 21.6976L5.37088 16.2467C4.58717 15.6773 4.98994 14.4377 5.95867 14.4377H15.2322C15.6654 14.4377 16.0494 14.1587 16.1833 13.7467L19.0489 4.92705Z" fill="#2D9CDB"/>
</svg>
