<svg width="40" height="40" viewBox="0 0 40 40" fill="none" xmlns="http://www.w3.org/2000/svg">
<rect x="6" y="14" width="28" height="18" rx="2" fill="#2F80ED"/>
<path d="M9 13C9 11.8954 9.89543 11 11 11H29C30.1046 11 31 11.8954 31 13V13H9V13Z" fill="#2F80ED"/>
<path d="M13 10C13 9.44772 13.4477 9 14 9H26C26.5523 9 27 9.44772 27 10V10H13V10Z" fill="#2F80ED"/>
<path d="M13 28C13 25.2386 15.2386 23 18 23H22C24.7614 23 27 25.2386 27 28V28C27 29.1046 26.1046 30 25 30H15C13.8954 30 13 29.1046 13 28V28Z" fill="white"/>
<path d="M17 19C17 17.3431 18.3431 16 20 16V16C21.6569 16 23 17.3431 23 19V19C23 20.6569 21.6569 22 20 22V22C18.3431 22 17 20.6569 17 19V19Z" fill="white"/>
</svg>
